/* XPM */
static char * neon_xpm[] = {
"48 48 676 2",
"  	c #010404",
". 	c #010405",
"+ 	c #02080B",
"@ 	c #011321",
"# 	c #02294F",
"$ 	c #074685",
"% 	c #0C5AA2",
"& 	c #094B8D",
"* 	c #033060",
"= 	c #011A31",
"- 	c #020D14",
"; 	c #010507",
"> 	c #02090D",
", 	c #011629",
"' 	c #022951",
") 	c #033163",
"! 	c #01254A",
"~ 	c #011323",
"{ 	c #02080A",
"] 	c #010608",
"^ 	c #011527",
"/ 	c #2A9FE6",
"( 	c #63D9FD",
"_ 	c #84EAFE",
": 	c #85EBFE",
"< 	c #6FE0FD",
"[ 	c #3EBBF4",
"} 	c #1674C1",
"| 	c #03305E",
"1 	c #02101B",
"2 	c #02070A",
"3 	c #011B33",
"4 	c #0B559B",
"5 	c #2BA3E9",
"6 	c #3DBEF6",
"7 	c #2699E3",
"8 	c #08488A",
"9 	c #011729",
"0 	c #020709",
"a 	c #010505",
"b 	c #020C12",
"c 	c #043568",
"d 	c #32AEEF",
"e 	c #A9F8FF",
"f 	c #ACF6FE",
"g 	c #7CE5FE",
"h 	c #75E2FE",
"i 	c #98EFFE",
"j 	c #BBFCFF",
"k 	c #88EDFE",
"l 	c #2799E1",
"m 	c #033262",
"n 	c #020D15",
"o 	c #010506",
"p 	c #010F19",
"q 	c #084684",
"r 	c #45C3F8",
"s 	c #B5FAFF",
"t 	c #C7FDFF",
"u 	c #A9F7FF",
"v 	c #36B2F1",
"w 	c #043970",
"x 	c #020507",
"y 	c #011322",
"z 	c #1064AE",
"A 	c #80EBFE",
"B 	c #9BF1FF",
"C 	c #2698E1",
"D 	c #0B559C",
"E 	c #094F92",
"F 	c #126BB7",
"G 	c #35B0EF",
"H 	c #9DF2FF",
"I 	c #92F1FE",
"J 	c #1E88D4",
"K 	c #012448",
"L 	c #010607",
"M 	c #011A30",
"N 	c #1B80CC",
"O 	c #A2F4FF",
"P 	c #85EBFF",
"Q 	c #42C9FD",
"R 	c #1169B7",
"S 	c #011425",
"T 	c #071B26",
"U 	c #081D2A",
"V 	c #082D4A",
"W 	c #1E8BD4",
"X 	c #B6FAFF",
"Y 	c #50CBFA",
"Z 	c #053F78",
"` 	c #01121F",
" .	c #020E16",
"..	c #033568",
"+.	c #289CE4",
"@.	c #ADF6FE",
"#.	c #71E1FE",
"$.	c #0F60A9",
"%.	c #011528",
"&.	c #020607",
"*.	c #012142",
"=.	c #2EA4E8",
"-.	c #B4FCFF",
";.	c #39B7F7",
">.	c #0F68BF",
",.	c #4AC7FA",
"'.	c #B9FAFF",
").	c #2090D8",
"!.	c #011B34",
"~.	c #227BB2",
"{.	c #237DB5",
"].	c #2386C7",
"^.	c #2DABF2",
"/.	c #B9FBFF",
"(.	c #3FB6F2",
"_.	c #022B53",
":.	c #02080C",
"<.	c #02101A",
"[.	c #063D75",
"}.	c #40BEF5",
"|.	c #C0FCFF",
"1.	c #3FBAF2",
"2.	c #04376B",
"3.	c #01264D",
"4.	c #39B1EF",
"5.	c #B0FCFF",
"6.	c #279BE3",
"7.	c #054385",
"8.	c #36AFEE",
"9.	c #BEFCFF",
"0.	c #289FE2",
"a.	c #01213F",
"b.	c #021E38",
"c.	c #2393DA",
"d.	c #B7FCFF",
"e.	c #3BB2EF",
"f.	c #01274E",
"g.	c #010709",
"h.	c #020708",
"i.	c #01172A",
"j.	c #1063AD",
"k.	c #78E6FD",
"l.	c #9DF3FE",
"m.	c #011D39",
"n.	c #022852",
"o.	c #3DB5F1",
"p.	c #B0FBFF",
"q.	c #2396E0",
"r.	c #033E7C",
"s.	c #32A8EB",
"t.	c #B9FCFF",
"u.	c #2CA4E6",
"v.	c #012242",
"w.	c #011D35",
"x.	c #2494DB",
"y.	c #3AB1EE",
"z.	c #01284E",
"A.	c #020A0E",
"B.	c #02274D",
"C.	c #B1F9FF",
"D.	c #5BD3FB",
"E.	c #084A8C",
"F.	c #01101C",
"G.	c #2395DF",
"H.	c #033D7B",
"I.	c #30A7EB",
"J.	c #B8FCFF",
"K.	c #2CA5E6",
"L.	c #012343",
"M.	c #011D36",
"N.	c #2495DB",
"O.	c #02101C",
"P.	c #08498A",
"Q.	c #57D0FA",
"R.	c #B5F9FE",
"S.	c #279BE2",
"T.	c #01264C",
"U.	c #01070A",
"V.	c #3DB4F1",
"W.	c #2395DE",
"X.	c #033D7A",
"Y.	c #31A7EB",
"Z.	c #2EA6E7",
"`.	c #010708",
" +	c #011E39",
".+	c #1A7FCA",
"++	c #9DF2FE",
"@+	c #75E4FD",
"#+	c #0D5EA6",
"$+	c #012852",
"%+	c #3CB5F1",
"&+	c #012243",
"*+	c #04396E",
"=+	c #41BEF4",
"-+	c #BFFCFF",
";+	c #38B1EF",
">+	c #020B11",
",+	c #022952",
"'+	c #3AB1EF",
")+	c #01182C",
"!+	c #116AB5",
"~+	c #91EEFF",
"{+	c #1572BF",
"]+	c #011931",
"^+	c #033D79",
"/+	c #31A8EB",
"(+	c #2DA6E7",
"_+	c #022D58",
":+	c #2FA7EA",
"<+	c #B8FBFE",
"[+	c #4BC6F8",
"}+	c #063F7B",
"|+	c #020E17",
"1+	c #012851",
"2+	c #2495DE",
"3+	c #0B569D",
"4+	c #6ADCFD",
"5+	c #A7F6FE",
"6+	c #1F89D4",
"7+	c #01203E",
"8+	c #012346",
"9+	c #2392DD",
"0+	c #AFF8FF",
"a+	c #61D8FC",
"b+	c #0A4E91",
"c+	c #01111D",
"d+	c #31A7EA",
"e+	c #020A0F",
"f+	c #020C13",
"g+	c #074888",
"h+	c #53CEFA",
"i+	c #B7FAFE",
"j+	c #2AA0E5",
"k+	c #022850",
"l+	c #02090E",
"m+	c #2EA6E6",
"n+	c #02274E",
"o+	c #02111D",
"p+	c #012141",
"q+	c #04366A",
"r+	c #074583",
"s+	c #063E78",
"t+	c #022E5E",
"u+	c #023467",
"v+	c #1E8AD9",
"w+	c #9DF3FF",
"x+	c #7BE5FE",
"y+	c #0F60A8",
"z+	c #011526",
"A+	c #033E7A",
"B+	c #2DA6E6",
"C+	c #01192F",
"D+	c #074686",
"E+	c #2291DC",
"F+	c #4BC9F8",
"G+	c #68DCFD",
"H+	c #6EDFFE",
"I+	c #5BD5FB",
"J+	c #35B0F0",
"K+	c #1779CB",
"L+	c #1270C9",
"M+	c #48CBFD",
"N+	c #3AB5F1",
"O+	c #033264",
"P+	c #2494DE",
"Q+	c #B8FCFE",
"R+	c #01284F",
"S+	c #020C11",
"T+	c #011930",
"U+	c #0C59A0",
"V+	c #47C5F8",
"W+	c #ABF8FF",
"X+	c #B6F9FF",
"Y+	c #97EFFF",
"Z+	c #8EECFF",
"`+	c #AAF5FF",
" @	c #BAFCFE",
".@	c #81EAFE",
"+@	c #33B3F9",
"@@	c #2FAEFD",
"#@	c #8FF0FE",
"$@	c #90EFFE",
"%@	c #1674C2",
"&@	c #011A32",
"*@	c #B7FCFE",
"=@	c #2EA7E6",
"-@	c #2395DB",
";@	c #011525",
">@	c #084785",
",@	c #BCFBFE",
"'@	c #6ADCFC",
")@	c #2493DC",
"!@	c #1065B0",
"~@	c #0E5EA8",
"{@	c #1778C4",
"]@	c #3CB7F2",
"^@	c #A2F3FF",
"/@	c #A1F5FF",
"(@	c #47CEFF",
"_@	c #52D9FF",
":@	c #C3FCFE",
"<@	c #4AC7F8",
"[@	c #063F79",
"}@	c #020F18",
"|@	c #3AB2EF",
"1@	c #022C57",
"2@	c #2392DC",
"3@	c #AFF8FE",
"4@	c #69DEFD",
"5@	c #1066B1",
"6@	c #01111E",
"7@	c #01101B",
"8@	c #01172C",
"9@	c #04366B",
"0@	c #2494DF",
"a@	c #95F0FE",
"b@	c #52DDFF",
"c@	c #8EF2FF",
"d@	c #A6F6FF",
"e@	c #1E89D5",
"f@	c #012140",
"g@	c #30A7EA",
"h@	c #2EA7E7",
"i@	c #3BB2F0",
"j@	c #023161",
"k@	c #053F7C",
"l@	c #53CDF9",
"m@	c #B0F9FF",
"n@	c #2190DA",
"o@	c #032F5E",
"p@	c #269AE2",
"q@	c #A9F6FF",
"r@	c #9CF5FF",
"s@	c #62E8FF",
"t@	c #C7FCFF",
"u@	c #5CD6FC",
"v@	c #0A4F92",
"w@	c #3DB5F0",
"x@	c #033E7B",
"y@	c #3CB4F1",
"z@	c #03366D",
"A@	c #0C5BA6",
"B@	c #7FE7FE",
"C@	c #7DE8FE",
"D@	c #0B58A2",
"E@	c #043B73",
"F@	c #39B7F2",
"G@	c #C1FBFE",
"H@	c #7DF0FF",
"I@	c #88F2FF",
"J@	c #B6F9FE",
"K@	c #2B9EE3",
"L@	c #022A51",
"M@	c #022A53",
"N@	c #40B8F2",
"O@	c #2293DD",
"P@	c #B7FBFF",
"Q@	c #3CB5F2",
"R@	c #033B74",
"S@	c #1371BF",
"T@	c #9FF3FF",
"U@	c #62D8FC",
"V@	c #0E5CA5",
"W@	c #69DFFD",
"X@	c #C3FBFF",
"Y@	c #6BEDFF",
"Z@	c #BDFAFF",
"`@	c #75E5FE",
" #	c #0F61AD",
".#	c #01080B",
"+#	c #022D5A",
"@#	c #44BFF5",
"##	c #B3FAFF",
"$#	c #1F8CD7",
"%#	c #2DA7E7",
"&#	c #3DB7F3",
"*#	c #043F7A",
"=#	c #187DCC",
"-#	c #A7F7FF",
";#	c #56CDF9",
">#	c #04376D",
",#	c #02090C",
"'#	c #012447",
")#	c #2393DC",
"!#	c #ABF7FF",
"~#	c #98F6FF",
"{#	c #7EF1FF",
"]#	c #C4FCFE",
"^#	c #3AB7F2",
"/#	c #043569",
"(#	c #033265",
"_#	c #4DC8F7",
":#	c #B2F8FF",
"<#	c #1B83CF",
"[#	c #02386E",
"}#	c #2FA5E8",
"|#	c #B8FBFF",
"1#	c #3DB6F3",
"2#	c #04417E",
"3#	c #1A82D0",
"4#	c #A6F8FF",
"5#	c #50C7F8",
"6#	c #033365",
"7#	c #010F1A",
"8#	c #074381",
"9#	c #4CC9F9",
"0#	c #CBFDFF",
"a#	c #75EFFF",
"b#	c #95F0FF",
"c#	c #1A80CD",
"d#	c #020B10",
"e#	c #053E7B",
"f#	c #5DD5FC",
"g#	c #1572C1",
"h#	c #023469",
"i#	c #30A4E9",
"j#	c #04417F",
"k#	c #1B85D2",
"l#	c #A7F8FF",
"m#	c #4DC5F7",
"n#	c #1777C3",
"o#	c #8DEEFF",
"p#	c #B0F8FF",
"q#	c #6FEDFF",
"r#	c #C8FCFE",
"s#	c #5FD9FC",
"t#	c #0C59A1",
"u#	c #0D5DA7",
"v#	c #85E9FE",
"w#	c #7DE7FE",
"x#	c #0C5AA4",
"y#	c #012F5F",
"z#	c #2FA3E8",
"A#	c #021D35",
"B#	c #04407F",
"C#	c #1B84D2",
"D#	c #A6F8FE",
"E#	c #033364",
"F#	c #35B2F0",
"G#	c #C2FCFF",
"H#	c #7AEFFF",
"I#	c #7BEEFF",
"J#	c #C5FCFF",
"K#	c #44C2F6",
"L#	c #084989",
"M#	c #299FE5",
"N#	c #B6FBFE",
"O#	c #4BC5F7",
"P#	c #043A72",
"Q#	c #012952",
"R#	c #2EA2E6",
"S#	c #011426",
"T#	c #0E5DA6",
"U#	c #6EE1FE",
"V#	c #BBFAFF",
"W#	c #55E1FF",
"X#	c #85EEFF",
"Y#	c #BEF9FF",
"Z#	c #42BEF5",
"`#	c #0C589E",
" $	c #01264A",
".$	c #011C35",
"+$	c #033160",
"@$	c #1A7FCC",
"#$	c #87E9FE",
"$$	c #9CF2FE",
"%$	c #1C83CE",
"&$	c #4DC4F7",
"*$	c #033162",
"=$	c #01090D",
"-$	c #2697E0",
";$	c #B1F7FF",
">$	c #7BECFF",
",$	c #42CAFF",
"'$	c #79E9FF",
")$	c #6ADEFD",
"!$	c #2BA5E8",
"~$	c #1C89D3",
"{$	c #1E8FD8",
"]$	c #90EDFE",
"^$	c #B2FAFF",
"/$	c #34AFEE",
"($	c #043A6F",
"_$	c #2EA1E5",
":$	c #020608",
"<$	c #1A85D2",
"[$	c #A7F8FE",
"}$	c #084787",
"|$	c #53CEF9",
"1$	c #BDFBFF",
"2$	c #43C8FF",
"3$	c #2AA4F9",
"4$	c #55D3FD",
"5$	c #AAF6FF",
"6$	c #BCFCFF",
"7$	c #BBFBFF",
"8$	c #BAFBFF",
"9$	c #8FEEFE",
"0$	c #31ABED",
"a$	c #074482",
"b$	c #011424",
"c$	c #012040",
"d$	c #2EA0E5",
"e$	c #B7FBFE",
"f$	c #011C36",
"g$	c #1A7DC8",
"h$	c #99F2FE",
"i$	c #84EBFF",
"j$	c #1E8EE5",
"k$	c #0F65B5",
"l$	c #1F89D5",
"m$	c #39B2EF",
"n$	c #45C0F4",
"o$	c #44BDF4",
"p$	c #30A5E8",
"q$	c #1572BD",
"r$	c #4CC5F7",
"s$	c #3BB8F3",
"t$	c #41C0F8",
"u$	c #06478A",
"v$	c #00254A",
"w$	c #022851",
"x$	c #02305F",
"y$	c #022D59",
"z$	c #012548",
"A$	c #01172B",
"B$	c #1B84D1",
"C$	c #011628",
"D$	c #0F62AC",
"E$	c #7AE6FE",
"F$	c #9BF2FE",
"G$	c #1A7FCD",
"H$	c #01203F",
"I$	c #02284F",
"J$	c #299CE3",
"K$	c #B4F9FE",
"L$	c #57D0FB",
"M$	c #01111C",
"N$	c #A7F9FF",
"O$	c #094A8C",
"P$	c #5AD3FB",
"Q$	c #B2F9FE",
"R$	c #279AE2",
"S$	c #01274C",
"T$	c #3DB7F2",
"U$	c #011E3A",
"V$	c #1B82CE",
"W$	c #A0F3FE",
"X$	c #77E3FD",
"Y$	c #0E5FA9",
"Z$	c #3CB6F2",
"`$	c #41BDF4",
" %	c #39B3F0",
".%	c #033466",
"+%	c #3DB6F2",
"@%	c #1A84D2",
"#%	c #1167B2",
"$%	c #7FE8FE",
"%%	c #97F0FE",
"&%	c #1879C6",
"*%	c #011B35",
"=%	c #3CB6F3",
"-%	c #022A54",
";%	c #2CA2E6",
">%	c #54CEFA",
",%	c #074585",
"'%	c #020F1A",
")%	c #2394DB",
"!%	c #60D6FC",
"~%	c #AEF8FF",
"{%	c #2595DE",
"]%	c #012549",
"^%	c #2293D9",
"/%	c #011F3D",
"(%	c #1D87D2",
"_%	c #71E1FD",
":%	c #2DA5E6",
"<%	c #2190D7",
"[%	c #B9FBFE",
"}%	c #40B9F4",
"|%	c #054384",
"1%	c #1C86D5",
"2%	c #4BC4F7",
"3%	c #033061",
"4%	c #053B73",
"5%	c #45C1F5",
"6%	c #BDFCFF",
"7%	c #37B2EF",
"8%	c #010609",
"9%	c #31A5E7",
"0%	c #BAFCFF",
"a%	c #2BA4E6",
"b%	c #012342",
"c%	c #01192E",
"d%	c #1C88D0",
"e%	c #4BC7F9",
"f%	c #09539D",
"g%	c #2295E2",
"h%	c #ABFAFF",
"i%	c #44BCF5",
"j%	c #022C5B",
"k%	c #01172D",
"l%	c #1269B5",
"m%	c #80E8FE",
"n%	c #98F1FE",
"o%	c #1E87D1",
"p%	c #01274D",
"q%	c #022B54",
"r%	c #3AB4F0",
"s%	c #C1FCFF",
"t%	c #30B1F5",
"u%	c #248ACD",
"v%	c #237FB9",
"w%	c #237EB7",
"x%	c #136EBA",
"y%	c #96F1FF",
"z%	c #7BE6FE",
"A%	c #2398EC",
"B%	c #43C7FB",
"C%	c #01254B",
"D%	c #020A10",
"E%	c #ADF8FF",
"F%	c #80E6FE",
"G%	c #1F8CD8",
"H%	c #06417E",
"I%	c #012A55",
"J%	c #0E60AC",
"K%	c #66DBFD",
"L%	c #A5F7FF",
"M%	c #0B385A",
"N%	c #0B2838",
"O%	c #0B2636",
"P%	c #064381",
"Q%	c #4DCCFA",
"R%	c #93F2FF",
"S%	c #B9F9FE",
"T%	c #85ECFF",
"U%	c #1673C1",
"V%	c #063F7A",
"W%	c #38B4F1",
"X%	c #ADF7FE",
"Y%	c #A5F5FE",
"Z%	c #59D3FB",
"`%	c #3AB4F1",
" &	c #39B2F0",
".&	c #62DBFD",
"+&	c #C2FBFE",
"@&	c #5AD5FC",
"#&	c #0A4F93",
"$&	c #02111B",
"%&	c #011F3C",
"&&	c #146EBA",
"*&	c #52D1FB",
"=&	c #89EDFF",
"-&	c #6FE3FE",
";&	c #279AE3",
">&	c #06427D",
",&	c #2798E0",
"'&	c #6CDEFD",
")&	c #A7F6FF",
"!&	c #B3FCFF",
"~&	c #ACF7FF",
"{&	c #5DD7FD",
"]&	c #1776C4",
"^&	c #084C8D",
"/&	c #1169B6",
"(&	c #0D5CA5",
"_&	c #022F5D",
":&	c #02264D",
"<&	c #0A5094",
"[&	c #197BC8",
"}&	c #2496DD",
"|&	c #289BE2",
"1&	c #1B84CF",
"2&	c #0A5296",
"3&	c #012344",
"      . + @ # $ % % & * = - ;                                             > , ' ) ! ~ {         ",
"      ] ^ $ / ( _ : < [ } | 1 ;                                         2 3 4 5 6 7 8 9 0       ",
"    a b c d e f g h i j k l m n o                                     a p q r s t u v w - .     ",
"    x y z A B C D E F G H I J K >                                     L M N O P Q B k R S o     ",
"T T U V W X Y Z `  .S ..+.@.#.$.%.&.                                  0 *.=.-.;.>.,.'.).!.;     ",
"~.~.{.].^./.(._.:.  L <.[.}.|.1.2.- .                                 2 3.4.5.6.7.8.9.0.a.L     ",
"a a { b.c.d.e.f.g.    h.i.j.k.l.N m.g.                                2 n.o.p.q.r.s.t.u.v.]     ",
"    h.w.x.d.y.z.g.    . A.B.6.C.D.E.F.o                               2 n.o.p.G.H.I.J.K.L.h.    ",
"    h.M.N.d.y.z.g.      L O.P.Q.R.S.T.>                               U.n.V.p.W.X.Y.J.Z.v.`.    ",
"    h.w.N.d.y.f.g.        {  +.+++@+#+S ;                             U.$+%+p.W.X.Y.J.Z.&+h.    ",
"    h.M.N.d.y.f.g.        o n *+=+-+;+m >+                            2 ,+o.5.G.X.I.J.Z.v.g.    ",
"    `.M.N.d.'+f.g.          h.)+!+_ ~+{+]+]                           2 $+o.p.W.^+/+d.(+v.h.    ",
"    `.w.N.d.y.f.g.          . >+_+:+<+[+}+|+a                         2 1+V.p.2+X.Y.J.Z.v.g.    ",
"    h.w.x.d.y.f.g.            ] y 3+4+5+6+7+{                         2 $+o.5.G.X.I.d.Z.v.h.    ",
"    `.M.N.d.y.f.g.            . > 8+9+0+a+b+c+o                       U.$+o.p.W.X.d+J.Z.v.h.    ",
"    `.M.N.d.y.f.g.  . o { e+f+- - S g+h+i+j+k+l+                      U.n.o.p.W.X./+J.m+v.0     ",
"    h.w.N.d.y.n+U.. + o+p+q+r+g+s+t+u+v+w+x+y+z+L                     2 $+o.p.W.A+I.J.B+v.`.    ",
"    h.M.N.d.y.n+:.l+C+D+E+F+G+H+I+J+K+L+M+|.N+O+>+.                   U.$+V.5.P+X.I.Q+Z.v.h.    ",
"    h.M.N.d.y.R+S+T+U+V+W+X+Y+Z+`+ @.@+@@@#@$@%@&@g.                  2 $+o.5.2+X.d+*@=@v.0     ",
"    0 w.-@d.y.,+;@>@V+,@'@)@!@~@{@]@^@/@(@_@:@<@[@}@a                 2 n.o.p.W.X.Y.<+Z.&+0     ",
"    h.w.-@d.|@1@! 2@3@4@5@*.6@7@8@9@0@a@u b@c@d@e@f@+                 2 $+o.5.2+X.g@J.h@v.`.    ",
"    `.w.N.d.i@j@k@l@m@n@p+:.a . L |+o@p@q@r@s@t@u@v@6@o               2 $+w@p.W.x@I.J.Z.v.h.    ",
"    h.w.N.*@y@z@A@B@C@D@7@.       o p E@F@G@H@I@J@K@L@>               2 M@N@p.O@^+d+P@Z.v.`.    ",
"    `.w.N.J.Q@R@S@T@U@}+>+          ] ;@V@W@X@Y@Z@`@ #z+L             .#+#@###$#R@g@J.%#v.h.    ",
"    `.w.N.d.&#*#=#-#;#>#l+            ,#'#)#!#~#{#]#^#/#- .           > (#_#:#<#[#}#|#Z.v.h.    ",
"    h.w.N.d.1#2#3#4#5#6#,#            a 7#8#9#0#a#W+b#c#a.:..         d#e#f#T@g#h#i#|#Z.v.]     ",
"    h.w.N.d.&#j#k#l#m#) >               0 !.n#o#p#q#r#s#t#, ]       a 6@u#v#w#x#y#z#|#Z.v.`.    ",
"    `.A#N.d.1#B#C#D#m#) ,#                b E#F#G#H#I#J#K#L#^ :.L ] b ' M#N#O#P#Q#R#|#m+&+h.    ",
"    `.A#N.d.&#B#k#l#m#) ,#                ; S#T#U#V#W#X#Y#Z#`# $T+.$+$@$#$$$%$7+K R#Q+Z.v.0     ",
"    h.w.N.d.1#B#C#l#&$*$=$                  > ! -$;$>$,$'$X@)$!$~${$^#]$^$/$($c+&+_$J.m+v.:$    ",
"    `.w.N.d.&#B#<$[$m#*$>                   a <.}$|$1$2$3$4$5$6$i+7$8$9$0$a$b$e+c$d$e$h@v.`.    ",
"    h.w.N.d.&#j#C#D#&$) >                     0 f$g$h$i$j$k$l$m$n$o$p$q$c S { 2 c$d$<+Z.v.`.    ",
"    h.M.N.d.&#j#C#D#r$) ,#                    . f+/#s$9.t$u$v$w$x$y$z$A$n h.. ] c$d$Q+=@v.h.    ",
"    h.w.N.d.1#B#B$[$r$) ,#                      L C$D$E$F$G$H$S+> + U.L o     ] c$d$|#=@v.h.    ",
"    `.w.N.d.&#B#k#l#r$) ,#                        > I$J$K$L$L#M$L             ] c$d$P@h@v.`.    ",
"    `.M.N.d.&#B#k#N$&$) >                         o F.O$P$Q$R$S$A..           ] f@d$|#Z.v.0     ",
"    h.w.N.d.T$j#k#[$m#) >                           0 U$V$W$X$Y$^ 0           ] c$d$|#Z.v.:$    ",
"    `.w.N.d.Z$B#k#[$&$) >                           . n *+`$7$ %.%f+.         ] c$d$J.h@v.`.    ",
"    h.w.N.d.+%B#@%l#r$) =$                            ] A$#%$%%%&%*%0         ] c$d$|#Z.v.h.    ",
"    h.w.N.d.=%j#k#l#m#) ,#                              A.-%;%P@>%,%'%o       L c$d$<+h@&+`.    ",
"    `.M.)%d.&#j#C#l#m#) >                               o ` v@!%~%{%]%> .     ] c$d$<+(+v.h.    ",
"    h.M.^%d.&#B#k#D#m#) >                                 + /%(%O _%% S ]     ] c$d$<+:%v.`.    ",
"    h..$<%[%}%|%1%N$2%3%:.                                .  .4%5%6%7%.%n o   8%v.9%0%a%b%`.    ",
"    h.c%d%V#e%f%g%h%i%j%+                                   ] k%l%m%n%o%p%|+:.>+q%r%s%t%u%v%w%w%",
"    ; b$x%y%z%A%B%6%:+C%2                                     D%-%+.E%F%G%H%Q#I%J%K%L%e@M%N%O%O%",
"    a  .P%Q%t@R%S%T%U%c%L                                     o 1 V%W%X%Y%Z%`% &.&+&@&#&$&a     ",
"    . + %&&&*&=&-&;&.%n .                                       ] b$>&,&'&)&-.!&~&{&]&&+>       ",
"      . b f@^&/&(&_&` ]                                           h.O.:&<&[&}&|&1&2&3&- a       "};
